What is Hi10P ?

Hi10P is the advanced version of the normal x264. This gives more quality for the same size. 
You have the ability to watch Ultra Quality movies with the new Hi10P encodes.

Hi10P needs Updated, Advanced video players. 

i recommend VLC or Media Player Classic because it's pretty easy.
But, you can select any of your choice.

 
http://www.imdb.com/title/tt2168910/
 
http://en.wikipedia.org/wiki/Cocktail_(2012_film)

Format                                   : Matroska
Format version                           : Version 2
File size                                : 2.48 GiB
Duration                                 : 2h 24mn
Overall bit rate                         : 2 449 Kbps

Video
ID                                       : 1
Format                                   : AVC
Format/Info                              : Advanced Video Codec
Format profile                           : High 10@L4.1
Format settings, CABAC                   : Yes
Format settings, ReFrames                : 4 frames
Muxing mode                              : Header stripping
Codec ID                                 : V_MPEG4/ISO/AVC
Duration                                 : 2h 24mn
Bit rate                                 : 2 000 Kbps
Width                                    : 1 280 pixels
Height                                   : 544 pixels
Display aspect ratio                     : 2.35:1
Frame rate                               : 23.976 fps
Stream size                              : 1.98 GiB (80%)

Audio
ID                                       : 2
Format                                   : AC-3
Bit rate mode                            : Constant
Bit rate                                 : 448 Kbps
Channel(s)                               : 6 channels
Channel positions                        : Front: L C R, Side: L R, LFE
Sampling rate                            : 48.0 KHz
Bit depth                                : 16 bits
Compression mode                         : Lossy
Stream size                              : 464 MiB (18%)
Language                                 : Hindi
 
http://www.shotpix.com/images/36037737136100657955.png
 
http://www.shotpix.com/images/11128478096678397669.png
 
http://www.shotpix.com/images/46522632590591855659.png
 
http://www.shotpix.com/images/52736742983830451875.png
 
http://www.shotpix.com/images/00001642664721277805.png
 
http://www.shotpix.com/images/19662984095874281352.png
 
http://www.shotpix.com/images/80997668673534099300.png
 
http://www.shotpix.com/images/66811208964206007874.png
 
http://www.shotpix.com/images/86097245317479256527.png


                                 Check the sample First